<svg aria-hidden="true" style="position: absolute; width: 0; height: 0; overflow: hidden;" version="1.1" xmlns="http://www.w3.org/2000/svg" xmlns:xlink="http://www.w3.org/1999/xlink">
<defs>
<symbol id="Group-4" viewBox="0 0 139 32">
<path fill="#fff" style="fill: var(--color1, #fff)" d="M85.333 16c0 8.837-7.163 16-16 16s-16-7.163-16-16c0-8.837 7.163-16 16-16s16 7.163 16 16z"></path>
<path fill="#fff" style="fill: var(--color1, #fff)" d="M32 16c0 8.837-7.163 16-16 16s-16-7.163-16-16c0-8.837 7.163-16 16-16s16 7.163 16 16z"></path>
<path fill="#fff" style="fill: var(--color1, #fff)" d="M138.667 16c0 8.837-7.163 16-16 16s-16-7.163-16-16c0-8.837 7.163-16 16-16s16 7.163 16 16z"></path>
</symbol>
<symbol id="untitled" viewBox="0 0 43 32">
<path fill="#e1e1e1" style="fill: var(--color2, #e1e1e1)" d="M32.014 0c1.929 0 3.75 0.52 5.464 1.561s3.107 2.537 4.179 4.488c1.029 1.951 1.543 4.249 1.543 6.894s-0.643 5.225-1.929 7.74c-0.429 0.911-1.2 2.081-2.314 3.512-1.157 1.431-2.229 2.667-3.214 3.707l-4.050 4.098-2.893-4.813c2.014-1.257 3.793-2.818 5.336-4.683 1.543-1.821 2.314-3.491 2.314-5.008 0-0.78-0.171-1.409-0.514-1.886-1.5 1.084-3.171 1.626-5.014 1.626-1.329 0-2.593-0.412-3.793-1.236-1.243-0.78-2.229-1.821-2.957-3.122-0.771-1.258-1.157-2.558-1.157-3.902 0-1.518 0.45-2.97 1.35-4.358 0.857-1.388 1.993-2.515 3.407-3.382 1.371-0.824 2.786-1.236 4.243-1.236zM8.936 0c1.929 0 3.75 0.52 5.464 1.561s3.107 2.537 4.179 4.488c1.029 1.951 1.543 4.249 1.543 6.894 0 1.864-0.236 3.534-0.707 5.008-0.471 1.518-1.286 3.1-2.443 4.748-1.114 1.561-2.164 2.862-3.15 3.902-0.986 1.084-2.7 2.884-5.143 5.398l-2.893-4.813c2.014-1.257 3.793-2.818 5.336-4.683 1.543-1.821 2.314-3.491 2.314-5.008 0-0.78-0.171-1.409-0.514-1.886-1.5 1.084-3.171 1.626-5.014 1.626-1.329 0-2.593-0.412-3.793-1.236-1.243-0.78-2.229-1.821-2.957-3.122-0.771-1.258-1.157-2.558-1.157-3.902 0-1.518 0.429-2.97 1.286-4.358s1.993-2.515 3.407-3.382c1.371-0.824 2.786-1.236 4.243-1.236z"></path>
</symbol>
<symbol id="Burger" viewBox="0 0 46 32">
<path fill="none" stroke="#d41443" style="stroke: var(--color3, #d41443)" stroke-linejoin="miter" stroke-linecap="butt" stroke-miterlimit="4" stroke-width="2.2857" d="M0 2.286h45.714"></path>
<path fill="none" stroke="#d41443" style="stroke: var(--color3, #d41443)" stroke-linejoin="miter" stroke-linecap="butt" stroke-miterlimit="4" stroke-width="2.2857" d="M0 16h45.714"></path>
<path fill="none" stroke="#d41443" style="stroke: var(--color3, #d41443)" stroke-linejoin="miter" stroke-linecap="butt" stroke-miterlimit="4" stroke-width="2.2857" d="M0 29.714h45.714"></path>
</symbol>
<symbol id="close" viewBox="0 0 32 32">
<path fill="none" stroke="#fff" style="stroke: var(--color1, #fff)" stroke-linejoin="miter" stroke-linecap="butt" stroke-miterlimit="4" stroke-width="2" d="M2.519 2l26.963 28"></path>
<path fill="none" stroke="#fff" style="stroke: var(--color1, #fff)" stroke-linejoin="miter" stroke-linecap="butt" stroke-miterlimit="4" stroke-width="2" d="M2 29.481l28-26.963"></path>
</symbol>
<symbol id="Ellipse-1" viewBox="0 0 32 32">
<path fill="#fff" style="fill: var(--color1, #fff)" d="M32 16c0 8.837-7.163 16-16 16s-16-7.163-16-16c0-8.837 7.163-16 16-16s16 7.163 16 16z"></path>
</symbol>
<symbol id="Ellipse-6" viewBox="0 0 32 32">
<path fill="#c7133e" style="fill: var(--color4, #c7133e)" d="M32 16c0 8.837-7.163 16-16 16s-16-7.163-16-16c0-8.837 7.163-16 16-16s16 7.163 16 16z"></path>
</symbol>
<symbol id="Ellipse-8" viewBox="0 0 32 32">
<path fill="#d9d9d9" style="fill: var(--color5, #d9d9d9)" d="M32 16c0 8.837-7.163 16-16 16s-16-7.163-16-16c0-8.837 7.163-16 16-16s16 7.163 16 16z"></path>
</symbol>
<symbol id="facebook" viewBox="0 0 16 32">
<path fill="#fff" style="fill: var(--color1, #fff)" d="M14.143 15.972h-4.034v14.865h-6.112v-14.865h-2.907v-5.224h2.907v-3.381c0-2.418 1.142-6.203 6.166-6.203l4.527 0.019v5.071h-3.285c-0.539 0-1.296 0.271-1.296 1.424v3.075h4.567l-0.534 5.219z"></path>
</symbol>
<symbol id="git" viewBox="0 0 32 32">
<path fill="#fff" style="fill: var(--color1, #fff)" d="M16 0c-8.788 0-16 7.212-16 16 0 7.499 5.262 14.312 12.25 16v-5.293c-0.692 0.152-1.33 0.156-2.034-0.052-0.946-0.279-1.714-0.909-2.284-1.869-0.364-0.613-1.008-1.278-1.68-1.23l-0.165-1.868c1.453-0.124 2.711 0.886 3.457 2.14 0.332 0.558 0.713 0.884 1.203 1.029 0.473 0.14 0.982 0.072 1.574-0.137 0.149-1.186 0.692-1.63 1.102-2.255v-0.001c-4.167-0.622-5.828-2.832-6.488-4.578-0.874-2.317-0.405-5.212 1.14-7.041 0.030-0.036 0.084-0.129 0.063-0.194-0.708-2.139 0.155-3.909 0.187-4.097 0.817 0.242 0.95-0.243 3.551 1.337l0.449 0.27c0.188 0.112 0.129 0.048 0.317 0.034 1.086-0.295 2.23-0.458 3.358-0.472 1.136 0.015 2.273 0.178 3.404 0.484l0.145 0.015c-0.013-0.002 0.040-0.009 0.127-0.062 3.248-1.968 3.132-1.324 4.003-1.608 0.032 0.188 0.883 1.987 0.182 4.099-0.095 0.291 2.816 2.956 1.203 7.235-0.659 1.746-2.32 3.957-6.487 4.578v0.001c0.534 0.814 1.176 1.247 1.173 2.927v6.608c6.988-1.688 12.25-8.501 12.25-16 0-8.788-7.212-16-16-16v0z"></path>
</symbol>
<symbol id="telegram" viewBox="0 0 44 32">
<path fill="#fff" style="fill: var(--color1, #fff)" d="M17.343 21.048l-0.675 8.86c0.966 0 1.384-0.387 1.885-0.852l4.527-4.038 9.381 6.412c1.72 0.895 2.933 0.424 3.397-1.477l6.157-26.929 0.002-0.002c0.546-2.374-0.92-3.302-2.596-2.72l-36.194 12.933c-2.47 0.895-2.433 2.18-0.42 2.762l9.253 2.686 21.494-12.552c1.011-0.625 1.931-0.279 1.175 0.346l-17.386 14.57z"></path>
</symbol>
<symbol id="Vector" viewBox="0 0 35 32">
<path fill="#d31342" style="fill: var(--color6, #d31342)" d="M34.253 15.613c0.599-0.659 0.541-1.669-0.129-2.255l-14.772-12.926c-0.671-0.586-1.745-0.574-2.402 0.028l-14.822 13.587c-0.656 0.602-0.689 1.611-0.071 2.252l0.372 0.387c0.617 0.642 1.613 0.718 2.224 0.17l1.108-0.992v14.523c0 0.891 0.722 1.613 1.612 1.613h5.778c0.89 0 1.612-0.721 1.612-1.613v-10.16h7.37v10.16c-0.013 0.89 0.624 1.612 1.515 1.612h6.123c0.89 0 1.613-0.722 1.613-1.613v-14.318c0 0 0.306 0.268 0.683 0.6s1.168 0.066 1.767-0.594l0.42-0.462z"></path>
</symbol>
<symbol id="Group-8" viewBox="0 0 256 32">
<path  d="M32 16c0 8.837-7.163 16-16 16s-16-7.163-16-16c0-8.837 7.163-16 16-16s16 7.163 16 16z"></path>
<path  d="M256 16c0 8.837-7.163 16-16 16s-16-7.163-16-16c0-8.837 7.163-16 16-16s16 7.163 16 16z"></path>
<path  d="M144 16c0 8.837-7.163 16-16 16s-16-7.163-16-16c0-8.837 7.163-16 16-16s16 7.163 16 16z"></path>
</symbol>
<symbol id="hr-dots" viewBox="0 0 195 32">
<path fill="#d9d9d9" style="fill: var(--color1, #d9d9d9)" d="M113.053 16c0 8.837-7.163 16-16 16s-16-7.163-16-16c0-8.837 7.163-16 16-16s16 7.163 16 16z"></path>
<path fill="#d31342" style="fill: var(--color2, #d31342)" d="M32.64 15.401c0.599-0.65 0.541-1.646-0.129-2.225l-14.772-12.75c-0.671-0.578-1.745-0.566-2.402 0.027l-14.822 13.403c-0.656 0.594-0.689 1.589-0.071 2.222l0.372 0.382c0.617 0.633 1.613 0.708 2.224 0.168l1.108-0.979v14.326c0 0.879 0.722 1.591 1.612 1.591h5.778c0.89 0 1.612-0.712 1.612-1.591v-10.023h7.37v10.023c-0.013 0.878 0.624 1.59 1.515 1.59h6.123c0.89 0 1.613-0.711 1.613-1.59v-14.124c0 0 0.306 0.264 0.683 0.592s1.168 0.065 1.767-0.586l0.42-0.455z"></path>
<path fill="#d9d9d9" style="fill: var(--color1, #d9d9d9)" d="M193.053 16c0 8.837-7.163 16-16 16s-16-7.163-16-16c0-8.837 7.163-16 16-16s16 7.163 16 16z"></path>
</symbol>
<symbol id="locate" viewBox="0 0 93 32">
<path d="M7.057 19.776c-0.815 0-1.528-0.178-2.141-0.535-0.605-0.357-1.082-0.849-1.431-1.478-0.341-0.636-0.512-1.369-0.512-2.199s0.171-1.559 0.512-2.188c0.349-0.636 0.826-1.133 1.431-1.489 0.613-0.357 1.327-0.535 2.141-0.535 0.807 0 1.517 0.178 2.129 0.535s1.090 0.853 1.431 1.489c0.341 0.628 0.512 1.358 0.512 2.188s-0.171 1.563-0.512 2.199c-0.341 0.628-0.818 1.121-1.431 1.478s-1.323 0.535-2.129 0.535zM7.057 18.438c0.776 0 1.393-0.256 1.85-0.768 0.465-0.512 0.698-1.214 0.698-2.106s-0.233-1.594-0.698-2.106c-0.458-0.512-1.074-0.768-1.85-0.768s-1.396 0.256-1.862 0.768c-0.465 0.512-0.698 1.214-0.698 2.106s0.233 1.594 0.698 2.106c0.465 0.512 1.086 0.768 1.862 0.768zM17.972 13.865v5.772h-1.315l-0.116-0.977c-0.178 0.341-0.438 0.613-0.78 0.815-0.334 0.202-0.729 0.303-1.187 0.303-0.714 0-1.268-0.225-1.664-0.675s-0.593-1.109-0.593-1.978v-3.258h1.489v3.119c0 0.497 0.101 0.877 0.303 1.14s0.516 0.396 0.943 0.396c0.419 0 0.76-0.147 1.024-0.442 0.272-0.295 0.407-0.706 0.407-1.233v-2.979h1.489zM19.489 19.636v-5.772h1.327l0.14 1.082c0.209-0.372 0.493-0.667 0.849-0.884 0.365-0.225 0.791-0.337 1.28-0.337v1.571h-0.419c-0.326 0-0.617 0.050-0.873 0.151s-0.458 0.275-0.605 0.524c-0.14 0.248-0.209 0.593-0.209 1.036v2.63h-1.489zM26.911 19.636v-8.145h1.489v6.982h3.607v1.164h-5.097zM35.793 19.776c-0.559 0-1.063-0.128-1.513-0.384-0.442-0.256-0.795-0.609-1.059-1.059-0.256-0.458-0.384-0.985-0.384-1.583s0.132-1.121 0.396-1.571c0.264-0.458 0.617-0.815 1.059-1.071 0.45-0.256 0.954-0.384 1.513-0.384 0.551 0 1.047 0.128 1.489 0.384 0.45 0.256 0.803 0.613 1.059 1.071 0.264 0.45 0.396 0.974 0.396 1.571s-0.132 1.125-0.396 1.583c-0.256 0.45-0.609 0.803-1.059 1.059s-0.95 0.384-1.501 0.384zM35.793 18.484c0.388 0 0.725-0.143 1.012-0.431 0.287-0.295 0.431-0.729 0.431-1.303s-0.144-1.005-0.431-1.292c-0.287-0.295-0.621-0.442-1.001-0.442-0.396 0-0.737 0.147-1.024 0.442-0.279 0.287-0.419 0.718-0.419 1.292s0.14 1.009 0.419 1.303c0.287 0.287 0.624 0.431 1.012 0.431zM42.908 19.776c-0.59 0-1.109-0.128-1.559-0.384s-0.807-0.613-1.071-1.071c-0.256-0.458-0.384-0.981-0.384-1.571s0.128-1.113 0.384-1.571c0.264-0.458 0.621-0.815 1.071-1.071s0.97-0.384 1.559-0.384c0.737 0 1.358 0.194 1.862 0.582 0.504 0.38 0.826 0.908 0.966 1.583h-1.571c-0.078-0.279-0.233-0.496-0.465-0.652-0.225-0.163-0.493-0.244-0.803-0.244-0.411 0-0.76 0.155-1.047 0.465s-0.431 0.741-0.431 1.292c0 0.551 0.144 0.981 0.431 1.292s0.636 0.465 1.047 0.465c0.31 0 0.578-0.078 0.803-0.233 0.233-0.155 0.388-0.376 0.465-0.663h1.571c-0.14 0.652-0.462 1.175-0.966 1.571s-1.125 0.593-1.862 0.593zM49.047 19.776c-0.496 0-0.904-0.078-1.222-0.233-0.318-0.163-0.555-0.376-0.71-0.64s-0.233-0.555-0.233-0.873c0-0.535 0.209-0.97 0.628-1.303s1.047-0.5 1.885-0.5h1.466v-0.14c0-0.396-0.112-0.687-0.337-0.873s-0.504-0.279-0.838-0.279c-0.303 0-0.566 0.074-0.791 0.221-0.225 0.14-0.365 0.349-0.419 0.628h-1.455c0.039-0.419 0.178-0.784 0.419-1.094 0.248-0.31 0.566-0.547 0.954-0.71 0.388-0.171 0.822-0.256 1.303-0.256 0.822 0 1.47 0.206 1.943 0.617s0.71 0.993 0.71 1.745v3.549h-1.268l-0.14-0.931c-0.171 0.31-0.411 0.566-0.721 0.768-0.303 0.202-0.694 0.303-1.175 0.303zM49.385 18.612c0.427 0 0.756-0.14 0.989-0.419 0.24-0.279 0.392-0.625 0.454-1.036h-1.268c-0.396 0-0.679 0.074-0.849 0.221-0.171 0.14-0.256 0.314-0.256 0.524 0 0.225 0.085 0.399 0.256 0.524s0.396 0.186 0.675 0.186zM56.266 19.636c-0.605 0-1.090-0.147-1.455-0.442s-0.547-0.818-0.547-1.571v-2.513h-0.989v-1.245h0.989l0.175-1.548h1.315v1.548h1.559v1.245h-1.559v2.525c0 0.279 0.058 0.473 0.175 0.582 0.124 0.101 0.334 0.151 0.628 0.151h0.721v1.268h-1.012zM59.394 12.969c-0.272 0-0.496-0.081-0.675-0.244-0.171-0.163-0.256-0.368-0.256-0.617s0.085-0.45 0.256-0.605c0.178-0.163 0.403-0.244 0.675-0.244s0.493 0.081 0.663 0.244c0.178 0.155 0.268 0.357 0.268 0.605s-0.089 0.454-0.268 0.617c-0.171 0.163-0.392 0.244-0.663 0.244zM58.65 19.636v-5.772h1.489v5.772h-1.489zM64.463 19.776c-0.559 0-1.063-0.128-1.513-0.384-0.442-0.256-0.795-0.609-1.059-1.059-0.256-0.458-0.384-0.985-0.384-1.583s0.132-1.121 0.396-1.571c0.264-0.458 0.617-0.815 1.059-1.071 0.45-0.256 0.954-0.384 1.513-0.384 0.551 0 1.047 0.128 1.489 0.384 0.45 0.256 0.803 0.613 1.059 1.071 0.264 0.45 0.396 0.974 0.396 1.571s-0.132 1.125-0.396 1.583c-0.256 0.45-0.609 0.803-1.059 1.059s-0.95 0.384-1.501 0.384zM64.463 18.484c0.388 0 0.725-0.143 1.012-0.431 0.287-0.295 0.431-0.729 0.431-1.303s-0.144-1.005-0.431-1.292c-0.287-0.295-0.621-0.442-1.001-0.442-0.396 0-0.737 0.147-1.024 0.442-0.279 0.287-0.419 0.718-0.419 1.292s0.14 1.009 0.419 1.303c0.287 0.287 0.624 0.431 1.012 0.431zM68.751 19.636v-5.772h1.315l0.116 0.977c0.178-0.341 0.434-0.613 0.768-0.815 0.341-0.202 0.741-0.303 1.199-0.303 0.714 0 1.268 0.225 1.664 0.675s0.593 1.109 0.593 1.978v3.258h-1.489v-3.119c0-0.497-0.1-0.877-0.302-1.14s-0.516-0.396-0.943-0.396c-0.419 0-0.764 0.147-1.036 0.442-0.264 0.295-0.396 0.706-0.396 1.233v2.979h-1.489zM78.216 19.776c-0.512 0-0.962-0.081-1.35-0.244-0.388-0.171-0.698-0.403-0.931-0.698s-0.372-0.636-0.419-1.024h1.501c0.047 0.225 0.17 0.419 0.372 0.582 0.209 0.155 0.477 0.233 0.803 0.233s0.562-0.066 0.71-0.198c0.155-0.132 0.233-0.283 0.233-0.454 0-0.248-0.109-0.415-0.326-0.5-0.217-0.093-0.52-0.182-0.908-0.268-0.249-0.054-0.5-0.12-0.756-0.198s-0.493-0.175-0.71-0.291c-0.209-0.124-0.38-0.279-0.512-0.465-0.132-0.194-0.198-0.431-0.198-0.71 0-0.512 0.201-0.943 0.605-1.292 0.411-0.349 0.985-0.524 1.722-0.524 0.682 0 1.225 0.159 1.629 0.477 0.411 0.318 0.655 0.756 0.733 1.315h-1.408c-0.086-0.427-0.407-0.64-0.966-0.64-0.279 0-0.497 0.054-0.652 0.163-0.148 0.109-0.221 0.244-0.221 0.407 0 0.171 0.112 0.306 0.337 0.407s0.524 0.194 0.896 0.279c0.403 0.093 0.772 0.198 1.105 0.314 0.341 0.109 0.612 0.275 0.815 0.5 0.201 0.217 0.303 0.531 0.303 0.943 0.007 0.357-0.086 0.679-0.279 0.966s-0.473 0.512-0.838 0.675c-0.365 0.163-0.796 0.244-1.292 0.244z"></path>
<path stroke-linejoin="round" stroke-linecap="round" stroke-miterlimit="4" stroke-width="1.4545" d="M89.455 13.818l2.625 2.909-2.625 2.909"></path>
</symbol>
<symbol id="franch" viewBox="0 0 72 32">
<path d="M2.452 19.636v-8.145h5.26v1.199h-3.77v2.281h3.049v1.175h-3.049v3.491h-1.489zM8.826 19.636v-5.772h1.327l0.14 1.082c0.209-0.372 0.493-0.667 0.849-0.884 0.365-0.225 0.791-0.337 1.28-0.337v1.571h-0.419c-0.326 0-0.617 0.050-0.873 0.151s-0.458 0.275-0.605 0.524c-0.14 0.248-0.209 0.593-0.209 1.036v2.63h-1.489zM15.43 19.776c-0.496 0-0.904-0.078-1.222-0.233-0.318-0.163-0.555-0.376-0.71-0.64s-0.233-0.555-0.233-0.873c0-0.535 0.209-0.97 0.628-1.303s1.047-0.5 1.885-0.5h1.466v-0.14c0-0.396-0.112-0.687-0.337-0.873s-0.504-0.279-0.838-0.279c-0.303 0-0.566 0.074-0.791 0.221-0.225 0.14-0.365 0.349-0.419 0.628h-1.455c0.039-0.419 0.178-0.784 0.419-1.094 0.248-0.31 0.566-0.547 0.954-0.71 0.388-0.171 0.822-0.256 1.303-0.256 0.822 0 1.47 0.206 1.943 0.617s0.71 0.993 0.71 1.745v3.549h-1.268l-0.14-0.931c-0.171 0.31-0.411 0.566-0.721 0.768-0.303 0.202-0.694 0.303-1.175 0.303zM15.767 18.612c0.427 0 0.756-0.14 0.989-0.419 0.241-0.279 0.392-0.625 0.454-1.036h-1.268c-0.396 0-0.679 0.074-0.849 0.221-0.171 0.14-0.256 0.314-0.256 0.524 0 0.225 0.085 0.399 0.256 0.524s0.396 0.186 0.675 0.186zM20.156 19.636v-5.772h1.315l0.116 0.977c0.178-0.341 0.434-0.613 0.768-0.815 0.341-0.202 0.741-0.303 1.199-0.303 0.714 0 1.268 0.225 1.664 0.675s0.593 1.109 0.593 1.978v3.258h-1.489v-3.119c0-0.497-0.101-0.877-0.303-1.14s-0.516-0.396-0.943-0.396c-0.419 0-0.764 0.147-1.036 0.442-0.264 0.295-0.396 0.706-0.396 1.233v2.979h-1.489zM30.063 19.776c-0.59 0-1.109-0.128-1.559-0.384s-0.807-0.613-1.071-1.071c-0.256-0.458-0.384-0.981-0.384-1.571s0.128-1.113 0.384-1.571c0.264-0.458 0.621-0.815 1.071-1.071s0.97-0.384 1.559-0.384c0.737 0 1.358 0.194 1.862 0.582 0.504 0.38 0.826 0.908 0.966 1.583h-1.571c-0.078-0.279-0.233-0.496-0.465-0.652-0.225-0.163-0.493-0.244-0.803-0.244-0.411 0-0.76 0.155-1.047 0.465s-0.431 0.741-0.431 1.292 0.143 0.981 0.431 1.292c0.287 0.31 0.636 0.465 1.047 0.465 0.31 0 0.578-0.078 0.803-0.233 0.233-0.155 0.388-0.376 0.465-0.663h1.571c-0.14 0.652-0.462 1.175-0.966 1.571s-1.125 0.593-1.862 0.593zM34.212 19.636v-8.378h1.489v3.491c0.194-0.318 0.454-0.566 0.78-0.745 0.334-0.186 0.714-0.279 1.14-0.279 0.714 0 1.264 0.225 1.652 0.675 0.396 0.45 0.593 1.109 0.593 1.978v3.258h-1.478v-3.119c0-0.497-0.101-0.877-0.303-1.14-0.194-0.264-0.504-0.396-0.931-0.396-0.419 0-0.768 0.147-1.047 0.442-0.272 0.295-0.407 0.706-0.407 1.233v2.979h-1.489zM42.095 12.969c-0.272 0-0.496-0.081-0.675-0.244-0.171-0.163-0.256-0.368-0.256-0.617s0.085-0.45 0.256-0.605c0.178-0.163 0.403-0.244 0.675-0.244s0.493 0.081 0.663 0.244c0.178 0.155 0.268 0.357 0.268 0.605s-0.089 0.454-0.268 0.617c-0.171 0.163-0.392 0.244-0.663 0.244zM41.35 19.636v-5.772h1.489v5.772h-1.489zM46.78 19.776c-0.512 0-0.962-0.081-1.35-0.244-0.388-0.171-0.698-0.403-0.931-0.698s-0.372-0.636-0.419-1.024h1.501c0.047 0.225 0.171 0.419 0.372 0.582 0.209 0.155 0.477 0.233 0.803 0.233s0.562-0.066 0.71-0.198c0.155-0.132 0.233-0.283 0.233-0.454 0-0.248-0.109-0.415-0.326-0.5-0.217-0.093-0.52-0.182-0.908-0.268-0.248-0.054-0.5-0.12-0.756-0.198s-0.493-0.175-0.71-0.291c-0.209-0.124-0.38-0.279-0.512-0.465-0.132-0.194-0.198-0.431-0.198-0.71 0-0.512 0.202-0.943 0.605-1.292 0.411-0.349 0.985-0.524 1.722-0.524 0.683 0 1.226 0.159 1.629 0.477 0.411 0.318 0.656 0.756 0.733 1.315h-1.408c-0.085-0.427-0.407-0.64-0.966-0.64-0.279 0-0.496 0.054-0.652 0.163-0.147 0.109-0.221 0.244-0.221 0.407 0 0.171 0.112 0.306 0.337 0.407s0.524 0.194 0.896 0.279c0.403 0.093 0.772 0.198 1.105 0.314 0.341 0.109 0.613 0.275 0.815 0.5 0.202 0.217 0.303 0.531 0.303 0.943 0.008 0.357-0.085 0.679-0.279 0.966s-0.473 0.512-0.838 0.675c-0.365 0.163-0.795 0.244-1.292 0.244zM53.312 19.776c-0.582 0-1.098-0.124-1.548-0.372s-0.803-0.597-1.059-1.047-0.384-0.97-0.384-1.559c0-0.597 0.124-1.129 0.372-1.594 0.256-0.465 0.605-0.826 1.047-1.082 0.45-0.264 0.977-0.396 1.583-0.396 0.566 0 1.067 0.124 1.501 0.372s0.772 0.59 1.012 1.024c0.248 0.427 0.372 0.904 0.372 1.431 0 0.085-0.004 0.175-0.012 0.268 0 0.093-0.004 0.19-0.012 0.291h-4.387c0.031 0.45 0.186 0.803 0.465 1.059 0.287 0.256 0.632 0.384 1.036 0.384 0.303 0 0.555-0.066 0.756-0.198 0.209-0.14 0.365-0.318 0.465-0.535h1.513c-0.109 0.365-0.291 0.698-0.547 1.001-0.248 0.295-0.559 0.527-0.931 0.698-0.365 0.171-0.78 0.256-1.245 0.256zM53.324 14.935c-0.365 0-0.687 0.105-0.966 0.314-0.279 0.202-0.458 0.512-0.535 0.931h2.874c-0.023-0.38-0.163-0.683-0.419-0.908s-0.574-0.337-0.954-0.337z"></path>
<path stroke-linejoin="round" stroke-linecap="round" stroke-miterlimit="4" stroke-width="1.4545" d="M67.942 13.818l3.114 2.909-3.114 2.909"></path>
</symbol>
</defs>
</svg>
