<svg aria-hidden="true" style="position: absolute; width: 0; height: 0; overflow: hidden;" version="1.1" xmlns="http://www.w3.org/2000/svg" xmlns:xlink="http://www.w3.org/1999/xlink">
<defs>
<symbol id="locate" viewBox="0 0 93 32">
<path fill="#fff" style="fill: var(--color1, #fff)" d="M7.057 19.776c-0.815 0-1.528-0.178-2.141-0.535-0.605-0.357-1.082-0.849-1.431-1.478-0.341-0.636-0.512-1.369-0.512-2.199s0.171-1.559 0.512-2.188c0.349-0.636 0.826-1.133 1.431-1.489 0.613-0.357 1.327-0.535 2.141-0.535 0.807 0 1.517 0.178 2.129 0.535s1.090 0.853 1.431 1.489c0.341 0.628 0.512 1.358 0.512 2.188s-0.171 1.563-0.512 2.199c-0.341 0.628-0.818 1.121-1.431 1.478s-1.323 0.535-2.129 0.535zM7.057 18.438c0.776 0 1.393-0.256 1.85-0.768 0.465-0.512 0.698-1.214 0.698-2.106s-0.233-1.594-0.698-2.106c-0.458-0.512-1.074-0.768-1.85-0.768s-1.396 0.256-1.862 0.768c-0.465 0.512-0.698 1.214-0.698 2.106s0.233 1.594 0.698 2.106c0.465 0.512 1.086 0.768 1.862 0.768zM17.972 13.865v5.772h-1.315l-0.116-0.977c-0.178 0.341-0.438 0.613-0.78 0.815-0.334 0.202-0.729 0.303-1.187 0.303-0.714 0-1.268-0.225-1.664-0.675s-0.593-1.109-0.593-1.978v-3.258h1.489v3.119c0 0.497 0.101 0.877 0.303 1.14s0.516 0.396 0.943 0.396c0.419 0 0.76-0.147 1.024-0.442 0.272-0.295 0.407-0.706 0.407-1.233v-2.979h1.489zM19.489 19.636v-5.772h1.327l0.14 1.082c0.209-0.372 0.493-0.667 0.849-0.884 0.365-0.225 0.791-0.337 1.28-0.337v1.571h-0.419c-0.326 0-0.617 0.050-0.873 0.151s-0.458 0.275-0.605 0.524c-0.14 0.248-0.209 0.593-0.209 1.036v2.63h-1.489zM26.911 19.636v-8.145h1.489v6.982h3.607v1.164h-5.097zM35.793 19.776c-0.559 0-1.063-0.128-1.513-0.384-0.442-0.256-0.795-0.609-1.059-1.059-0.256-0.458-0.384-0.985-0.384-1.583s0.132-1.121 0.396-1.571c0.264-0.458 0.617-0.815 1.059-1.071 0.45-0.256 0.954-0.384 1.513-0.384 0.551 0 1.047 0.128 1.489 0.384 0.45 0.256 0.803 0.613 1.059 1.071 0.264 0.45 0.396 0.974 0.396 1.571s-0.132 1.125-0.396 1.583c-0.256 0.45-0.609 0.803-1.059 1.059s-0.95 0.384-1.501 0.384zM35.793 18.484c0.388 0 0.725-0.143 1.012-0.431 0.287-0.295 0.431-0.729 0.431-1.303s-0.144-1.005-0.431-1.292c-0.287-0.295-0.621-0.442-1.001-0.442-0.396 0-0.737 0.147-1.024 0.442-0.279 0.287-0.419 0.718-0.419 1.292s0.14 1.009 0.419 1.303c0.287 0.287 0.624 0.431 1.012 0.431zM42.908 19.776c-0.59 0-1.109-0.128-1.559-0.384s-0.807-0.613-1.071-1.071c-0.256-0.458-0.384-0.981-0.384-1.571s0.128-1.113 0.384-1.571c0.264-0.458 0.621-0.815 1.071-1.071s0.97-0.384 1.559-0.384c0.737 0 1.358 0.194 1.862 0.582 0.504 0.38 0.826 0.908 0.966 1.583h-1.571c-0.078-0.279-0.233-0.496-0.465-0.652-0.225-0.163-0.493-0.244-0.803-0.244-0.411 0-0.76 0.155-1.047 0.465s-0.431 0.741-0.431 1.292c0 0.551 0.144 0.981 0.431 1.292s0.636 0.465 1.047 0.465c0.31 0 0.578-0.078 0.803-0.233 0.233-0.155 0.388-0.376 0.465-0.663h1.571c-0.14 0.652-0.462 1.175-0.966 1.571s-1.125 0.593-1.862 0.593zM49.047 19.776c-0.496 0-0.904-0.078-1.222-0.233-0.318-0.163-0.555-0.376-0.71-0.64s-0.233-0.555-0.233-0.873c0-0.535 0.209-0.97 0.628-1.303s1.047-0.5 1.885-0.5h1.466v-0.14c0-0.396-0.112-0.687-0.337-0.873s-0.504-0.279-0.838-0.279c-0.303 0-0.566 0.074-0.791 0.221-0.225 0.14-0.365 0.349-0.419 0.628h-1.455c0.039-0.419 0.178-0.784 0.419-1.094 0.248-0.31 0.566-0.547 0.954-0.71 0.388-0.171 0.822-0.256 1.303-0.256 0.822 0 1.47 0.206 1.943 0.617s0.71 0.993 0.71 1.745v3.549h-1.268l-0.14-0.931c-0.171 0.31-0.411 0.566-0.721 0.768-0.303 0.202-0.694 0.303-1.175 0.303zM49.385 18.612c0.427 0 0.756-0.14 0.989-0.419 0.24-0.279 0.392-0.625 0.454-1.036h-1.268c-0.396 0-0.679 0.074-0.849 0.221-0.171 0.14-0.256 0.314-0.256 0.524 0 0.225 0.085 0.399 0.256 0.524s0.396 0.186 0.675 0.186zM56.266 19.636c-0.605 0-1.090-0.147-1.455-0.442s-0.547-0.818-0.547-1.571v-2.513h-0.989v-1.245h0.989l0.175-1.548h1.315v1.548h1.559v1.245h-1.559v2.525c0 0.279 0.058 0.473 0.175 0.582 0.124 0.101 0.334 0.151 0.628 0.151h0.721v1.268h-1.012zM59.394 12.969c-0.272 0-0.496-0.081-0.675-0.244-0.171-0.163-0.256-0.368-0.256-0.617s0.085-0.45 0.256-0.605c0.178-0.163 0.403-0.244 0.675-0.244s0.493 0.081 0.663 0.244c0.178 0.155 0.268 0.357 0.268 0.605s-0.089 0.454-0.268 0.617c-0.171 0.163-0.392 0.244-0.663 0.244zM58.65 19.636v-5.772h1.489v5.772h-1.489zM64.463 19.776c-0.559 0-1.063-0.128-1.513-0.384-0.442-0.256-0.795-0.609-1.059-1.059-0.256-0.458-0.384-0.985-0.384-1.583s0.132-1.121 0.396-1.571c0.264-0.458 0.617-0.815 1.059-1.071 0.45-0.256 0.954-0.384 1.513-0.384 0.551 0 1.047 0.128 1.489 0.384 0.45 0.256 0.803 0.613 1.059 1.071 0.264 0.45 0.396 0.974 0.396 1.571s-0.132 1.125-0.396 1.583c-0.256 0.45-0.609 0.803-1.059 1.059s-0.95 0.384-1.501 0.384zM64.463 18.484c0.388 0 0.725-0.143 1.012-0.431 0.287-0.295 0.431-0.729 0.431-1.303s-0.144-1.005-0.431-1.292c-0.287-0.295-0.621-0.442-1.001-0.442-0.396 0-0.737 0.147-1.024 0.442-0.279 0.287-0.419 0.718-0.419 1.292s0.14 1.009 0.419 1.303c0.287 0.287 0.624 0.431 1.012 0.431zM68.751 19.636v-5.772h1.315l0.116 0.977c0.178-0.341 0.434-0.613 0.768-0.815 0.341-0.202 0.741-0.303 1.199-0.303 0.714 0 1.268 0.225 1.664 0.675s0.593 1.109 0.593 1.978v3.258h-1.489v-3.119c0-0.497-0.1-0.877-0.302-1.14s-0.516-0.396-0.943-0.396c-0.419 0-0.764 0.147-1.036 0.442-0.264 0.295-0.396 0.706-0.396 1.233v2.979h-1.489zM78.216 19.776c-0.512 0-0.962-0.081-1.35-0.244-0.388-0.171-0.698-0.403-0.931-0.698s-0.372-0.636-0.419-1.024h1.501c0.047 0.225 0.17 0.419 0.372 0.582 0.209 0.155 0.477 0.233 0.803 0.233s0.562-0.066 0.71-0.198c0.155-0.132 0.233-0.283 0.233-0.454 0-0.248-0.109-0.415-0.326-0.5-0.217-0.093-0.52-0.182-0.908-0.268-0.249-0.054-0.5-0.12-0.756-0.198s-0.493-0.175-0.71-0.291c-0.209-0.124-0.38-0.279-0.512-0.465-0.132-0.194-0.198-0.431-0.198-0.71 0-0.512 0.201-0.943 0.605-1.292 0.411-0.349 0.985-0.524 1.722-0.524 0.682 0 1.225 0.159 1.629 0.477 0.411 0.318 0.655 0.756 0.733 1.315h-1.408c-0.086-0.427-0.407-0.64-0.966-0.64-0.279 0-0.497 0.054-0.652 0.163-0.148 0.109-0.221 0.244-0.221 0.407 0 0.171 0.112 0.306 0.337 0.407s0.524 0.194 0.896 0.279c0.403 0.093 0.772 0.198 1.105 0.314 0.341 0.109 0.612 0.275 0.815 0.5 0.201 0.217 0.303 0.531 0.303 0.943 0.007 0.357-0.086 0.679-0.279 0.966s-0.473 0.512-0.838 0.675c-0.365 0.163-0.796 0.244-1.292 0.244z"></path>
<path fill="none" stroke="#fff" style="stroke: var(--color1, #fff)" stroke-linejoin="round" stroke-linecap="round" stroke-miterlimit="4" stroke-width="1.4545" d="M89.455 13.818l2.625 2.909-2.625 2.909"></path>
</symbol>
<symbol id="franch" viewBox="0 0 72 32">
<path fill="#d41443" style="fill: var(--color2, #d41443)" d="M2.452 19.636v-8.145h5.26v1.199h-3.77v2.281h3.049v1.175h-3.049v3.491h-1.489zM8.826 19.636v-5.772h1.327l0.14 1.082c0.209-0.372 0.493-0.667 0.849-0.884 0.365-0.225 0.791-0.337 1.28-0.337v1.571h-0.419c-0.326 0-0.617 0.050-0.873 0.151s-0.458 0.275-0.605 0.524c-0.14 0.248-0.209 0.593-0.209 1.036v2.63h-1.489zM15.43 19.776c-0.496 0-0.904-0.078-1.222-0.233-0.318-0.163-0.555-0.376-0.71-0.64s-0.233-0.555-0.233-0.873c0-0.535 0.209-0.97 0.628-1.303s1.047-0.5 1.885-0.5h1.466v-0.14c0-0.396-0.112-0.687-0.337-0.873s-0.504-0.279-0.838-0.279c-0.303 0-0.566 0.074-0.791 0.221-0.225 0.14-0.365 0.349-0.419 0.628h-1.455c0.039-0.419 0.178-0.784 0.419-1.094 0.248-0.31 0.566-0.547 0.954-0.71 0.388-0.171 0.822-0.256 1.303-0.256 0.822 0 1.47 0.206 1.943 0.617s0.71 0.993 0.71 1.745v3.549h-1.268l-0.14-0.931c-0.171 0.31-0.411 0.566-0.721 0.768-0.303 0.202-0.694 0.303-1.175 0.303zM15.767 18.612c0.427 0 0.756-0.14 0.989-0.419 0.241-0.279 0.392-0.625 0.454-1.036h-1.268c-0.396 0-0.679 0.074-0.849 0.221-0.171 0.14-0.256 0.314-0.256 0.524 0 0.225 0.085 0.399 0.256 0.524s0.396 0.186 0.675 0.186zM20.156 19.636v-5.772h1.315l0.116 0.977c0.178-0.341 0.434-0.613 0.768-0.815 0.341-0.202 0.741-0.303 1.199-0.303 0.714 0 1.268 0.225 1.664 0.675s0.593 1.109 0.593 1.978v3.258h-1.489v-3.119c0-0.497-0.101-0.877-0.303-1.14s-0.516-0.396-0.943-0.396c-0.419 0-0.764 0.147-1.036 0.442-0.264 0.295-0.396 0.706-0.396 1.233v2.979h-1.489zM30.063 19.776c-0.59 0-1.109-0.128-1.559-0.384s-0.807-0.613-1.071-1.071c-0.256-0.458-0.384-0.981-0.384-1.571s0.128-1.113 0.384-1.571c0.264-0.458 0.621-0.815 1.071-1.071s0.97-0.384 1.559-0.384c0.737 0 1.358 0.194 1.862 0.582 0.504 0.38 0.826 0.908 0.966 1.583h-1.571c-0.078-0.279-0.233-0.496-0.465-0.652-0.225-0.163-0.493-0.244-0.803-0.244-0.411 0-0.76 0.155-1.047 0.465s-0.431 0.741-0.431 1.292 0.143 0.981 0.431 1.292c0.287 0.31 0.636 0.465 1.047 0.465 0.31 0 0.578-0.078 0.803-0.233 0.233-0.155 0.388-0.376 0.465-0.663h1.571c-0.14 0.652-0.462 1.175-0.966 1.571s-1.125 0.593-1.862 0.593zM34.212 19.636v-8.378h1.489v3.491c0.194-0.318 0.454-0.566 0.78-0.745 0.334-0.186 0.714-0.279 1.14-0.279 0.714 0 1.264 0.225 1.652 0.675 0.396 0.45 0.593 1.109 0.593 1.978v3.258h-1.478v-3.119c0-0.497-0.101-0.877-0.303-1.14-0.194-0.264-0.504-0.396-0.931-0.396-0.419 0-0.768 0.147-1.047 0.442-0.272 0.295-0.407 0.706-0.407 1.233v2.979h-1.489zM42.095 12.969c-0.272 0-0.496-0.081-0.675-0.244-0.171-0.163-0.256-0.368-0.256-0.617s0.085-0.45 0.256-0.605c0.178-0.163 0.403-0.244 0.675-0.244s0.493 0.081 0.663 0.244c0.178 0.155 0.268 0.357 0.268 0.605s-0.089 0.454-0.268 0.617c-0.171 0.163-0.392 0.244-0.663 0.244zM41.35 19.636v-5.772h1.489v5.772h-1.489zM46.78 19.776c-0.512 0-0.962-0.081-1.35-0.244-0.388-0.171-0.698-0.403-0.931-0.698s-0.372-0.636-0.419-1.024h1.501c0.047 0.225 0.171 0.419 0.372 0.582 0.209 0.155 0.477 0.233 0.803 0.233s0.562-0.066 0.71-0.198c0.155-0.132 0.233-0.283 0.233-0.454 0-0.248-0.109-0.415-0.326-0.5-0.217-0.093-0.52-0.182-0.908-0.268-0.248-0.054-0.5-0.12-0.756-0.198s-0.493-0.175-0.71-0.291c-0.209-0.124-0.38-0.279-0.512-0.465-0.132-0.194-0.198-0.431-0.198-0.71 0-0.512 0.202-0.943 0.605-1.292 0.411-0.349 0.985-0.524 1.722-0.524 0.683 0 1.226 0.159 1.629 0.477 0.411 0.318 0.656 0.756 0.733 1.315h-1.408c-0.085-0.427-0.407-0.64-0.966-0.64-0.279 0-0.496 0.054-0.652 0.163-0.147 0.109-0.221 0.244-0.221 0.407 0 0.171 0.112 0.306 0.337 0.407s0.524 0.194 0.896 0.279c0.403 0.093 0.772 0.198 1.105 0.314 0.341 0.109 0.613 0.275 0.815 0.5 0.202 0.217 0.303 0.531 0.303 0.943 0.008 0.357-0.085 0.679-0.279 0.966s-0.473 0.512-0.838 0.675c-0.365 0.163-0.795 0.244-1.292 0.244zM53.312 19.776c-0.582 0-1.098-0.124-1.548-0.372s-0.803-0.597-1.059-1.047-0.384-0.97-0.384-1.559c0-0.597 0.124-1.129 0.372-1.594 0.256-0.465 0.605-0.826 1.047-1.082 0.45-0.264 0.977-0.396 1.583-0.396 0.566 0 1.067 0.124 1.501 0.372s0.772 0.59 1.012 1.024c0.248 0.427 0.372 0.904 0.372 1.431 0 0.085-0.004 0.175-0.012 0.268 0 0.093-0.004 0.19-0.012 0.291h-4.387c0.031 0.45 0.186 0.803 0.465 1.059 0.287 0.256 0.632 0.384 1.036 0.384 0.303 0 0.555-0.066 0.756-0.198 0.209-0.14 0.365-0.318 0.465-0.535h1.513c-0.109 0.365-0.291 0.698-0.547 1.001-0.248 0.295-0.559 0.527-0.931 0.698-0.365 0.171-0.78 0.256-1.245 0.256zM53.324 14.935c-0.365 0-0.687 0.105-0.966 0.314-0.279 0.202-0.458 0.512-0.535 0.931h2.874c-0.023-0.38-0.163-0.683-0.419-0.908s-0.574-0.337-0.954-0.337z"></path>
<path fill="none" stroke="#d41443" style="stroke: var(--color2, #d41443)" stroke-linejoin="round" stroke-linecap="round" stroke-miterlimit="4" stroke-width="1.4545" d="M67.942 13.818l3.114 2.909-3.114 2.909"></path>
</symbol>
</defs>
</svg>
